<?xml version="1.0" encoding="UTF-8" standalone="no"?>
<!-- Created with Inkscape (http://www.inkscape.org/) -->
<svg xmlns:inkscape="http://www.inkscape.org/namespaces/inkscape" xmlns:rdf="http://www.w3.org/1999/02/22-rdf-syntax-ns#" xmlns="http://www.w3.org/2000/svg" xmlns:cc="http://creativecommons.org/ns#" xmlns:dc="http://purl.org/dc/elements/1.1/" xmlns:sodipodi="http://sodipodi.sourceforge.net/DTD/sodipodi-0.dtd" xmlns:svg="http://www.w3.org/2000/svg" xmlns:ns1="http://sozi.baierouge.fr" xmlns:xlink="http://www.w3.org/1999/xlink" id="svg3971" sodipodi:docname="New document 6" viewBox="0 0 272.33 313.39" version="1.1" inkscape:version="0.47pre4 r22446">
  <title id="title4003">Twenty-Sided Dice</title>
  <sodipodi:namedview id="base" bordercolor="#666666" inkscape:pageshadow="2" inkscape:window-y="25" pagecolor="#ffffff" inkscape:window-height="950" inkscape:window-maximized="1" inkscape:zoom="0.35" inkscape:window-x="0" showgrid="false" borderopacity="1.0" inkscape:current-layer="layer1" inkscape:cx="-377.40885" inkscape:cy="156.69473" inkscape:window-width="1280" inkscape:pageopacity="0.0" inkscape:document-units="px"/>
  <g id="layer1" inkscape:label="Layer 1" inkscape:groupmode="layer" transform="translate(-246.69 -375.67)">
    <path id="path3922" style="fill:#d00000" d="m379.93 375.67c-0.57042 0.0194-1.2261 0.22811-1.5854 0.73174l-80.673 96.527c-1.3425 1.6806-1.4331 2.0557 0.3659 2.0732l161.59-0.42695c2.2208-0.18146 2.2305-0.0702 0.79265-1.9513l-79.271-96.527c-0.16389-0.25521-0.64874-0.44097-1.2196-0.42694zm15.488 8.5979 72.746 88.478c0.97444 1.1817 1.2119 1.2488 2.927 0.42695l38.355-17.562c2.5123-1.1339 2.1642-1.3661 0.48784-2.5002l-114.53-68.85zm-33.964 3.2317c-0.034-0.0722-0.6255 0.36995-1.9513 1.2806l-105.61 69.514 33.05 15c1.7241 0.56842 2.2392 0.59885 3.3536-0.79279l69.697-83.234c0.98238-1.1366 1.4962-1.6962 1.4634-1.7684zm33.416 35.245c4.6684 0.0002 8.4059 1.6096 11.159 4.8173 2.7517 3.1917 4.3047 7.7518 4.6954 13.659 0.3892 5.8913-0.59833 10.451-2.927 13.659-2.3298 3.1917-5.8196 4.7562-10.488 4.7562-4.6846 0-8.4072-1.5645-11.159-4.7562-2.7527-3.2077-4.3057-7.7676-4.6952-13.659-0.3907-5.9071 0.59706-10.467 2.9269-13.659 2.3287-3.2077 5.8034-4.8171 10.488-4.8173zm-30.672 0.36587c4.2558 0.0002 7.4467 0.93134 9.5125 2.805 2.0817 1.8738 2.8256 4.4546 2.3171 7.8051-0.29394 1.9374-1.0612 3.7439-2.3171 5.4271-1.2535 1.6674-3.683 3.9578-7.3173 6.7684l-8.5977 6.6466h15.61l-0.97563 6.7075h-25.854l1.0366-6.7075 14.696-11.464c1.3181-1.048 2.3411-2.0485 3.0488-3.0489 0.70753-1.0004 1.1165-2.091 1.2804-3.1708 0.25311-1.6674-0.0642-3.0083-1.0364-4.0245-0.95756-1.0162-2.4107-1.5243-4.2686-1.5245-1.4292 0.00019-3.0242 0.35649-4.8173 0.97563-1.7907 0.60354-3.7333 1.4763-5.8539 2.683l1.1587-7.8051c2.1679-0.68277 4.272-1.1751 6.3417-1.5243 2.072-0.36527 4.0994-0.5487 6.0366-0.5489zm31.099 5.9149c-1.9691 0-3.3036 0.91787-4.0246 2.7439-0.72196 1.8104-0.9647 4.9443-0.67069 9.3905 0.29703 4.494 0.92682 7.6096 1.8902 9.4516 0.96343 1.842 2.4214 2.805 4.3905 2.805 1.9532 0 3.3047-0.96294 4.0245-2.805 0.71981-1.842 0.96786-4.9576 0.67083-9.4516-0.29409-4.4462-0.92926-7.5801-1.8904-9.3905-0.94639-1.826-2.4214-2.7439-4.3903-2.7439zm-87.686 4.9391c0.84542 0 1.4391 0.2117 1.7073 0.67083 0.5305 0.91321-0.14034 2.6937-1.9512 5.4269-1.8165 2.7429-3.9027 5.0749-6.2807 6.9514-2.3843 1.8715-5.0217 3.2797-7.8661 4.2075-1.8448 0.60178-3.1177 0.75963-3.8414 0.42674-0.73034-0.33796-0.89867-1.1819-0.48785-2.4391-1.3742 1.4533-2.8096 2.714-4.3295 3.7197-1.5197 1.0055-3.068 1.7864-4.6952 2.3171-2.4218 0.78989-3.8802 0.73232-4.2684-0.18341-0.38855-0.91514 0.30804-2.6709 2.0121-5.2441 1.6916-2.5542 3.5833-4.7209 5.732-6.4636 2.1357-1.7386 4.4561-2.9866 6.8905-3.7806 1.6271-0.53074 2.7625-0.67044 3.4147-0.36586 0.6584 0.29504 0.81134 1.0236 0.48777 2.1341 1.4869-1.6081 3.0585-2.9626 4.7563-4.0854 1.6912-1.128 3.4599-2.0202 5.3049-2.6221 1.4223-0.46382 2.5694-0.6683 3.4147-0.67065zm162.75 1.4634c1.4516 1.2147 2.7929 2.4709 4.0245 3.6586 1.2409 1.1877 2.3675 2.3335 3.3536 3.4758 2.1663 2.5094 3.3182 4.4606 3.4148 5.8538 0.10532 1.4026-0.83845 2.1208-2.8051 2.1341-1.1369 0-2.4662-0.33132-3.9634-0.91457-1.488-0.58323-3.852-1.7784-7.1344-3.6586l-7.8051-4.4515 7.9882 9.2077-3.9636 0.0605-13.171-15.244 3.9635-0.0605 13.354 7.6223c1.2054 0.67924 2.2397 1.2006 3.1099 1.5243 0.87015 0.32392 1.6224 0.49211 2.256 0.48782 0.97856 0 1.4409-0.36782 1.4636-1.0365 0.031-0.65954-0.39577-1.5265-1.3415-2.6221-0.7275-0.84257-1.6986-1.8055-2.927-2.805-1.2191-0.99944-2.6959-2.0332-4.3904-3.1708l4.5735-0.0605zm-168.18 4.0856c-0.4525 0.0429-1.0636 0.13658-1.7685 0.36586-1.422 0.46383-2.6816 1.1107-3.7806 1.8902-1.1116 0.78381-2.015 1.6746-2.683 2.683-0.67418 1.018-0.82079 1.7122-0.42675 2.0123 0.39377 0.30011 1.3345 0.2158 2.7439-0.24392s2.6627-1.097 3.7806-1.8904c1.1053-0.78889 2.0089-1.7259 2.683-2.7439 0.66799-1.0084 0.81421-1.6565 0.42692-1.9513-0.20018-0.14441-0.52328-0.16392-0.97555-0.12101zm-13.232 4.6343c-0.36241 0.0274-0.83235 0.11897-1.4025 0.3048-1.1403 0.37209-2.1409 0.92723-3.0488 1.5854-0.92102 0.66246-1.6946 1.4081-2.2564 2.2563-0.57423 0.86714-0.72974 1.4367-0.42677 1.7074 0.30907 0.26128 1.0676 0.18537 2.1953-0.18342 1.1403-0.37192 2.1278-0.86207 3.0488-1.5245 0.92705-0.67184 1.6818-1.45 2.256-2.3171 0.56186-0.84823 0.73614-1.385 0.42699-1.6463-0.15414-0.13069-0.43048-0.21055-0.79272-0.18343zm226.1 15.61c-0.32817 0.0235-0.84598 0.21231-1.6463 0.5487l-39.391 17.988c-1.3986 0.63494-1.3106 1.4906-0.79271 2.5611l45.794 116.16-3.2927-135.31c-0.1015-1.4797-0.12292-1.9905-0.67092-1.9513zm-264.15 3.5976-4.2074 131.65 38.782-113.91c0.57289-1.6822 0.55941-1.7673-0.60982-2.3171l-33.964-15.427zm210.86 17.074-165.25 0.42695c-2.3616-0.0351-2.2638-0.0331-1.0975 1.8902l83.905 141.53c1.417 2.1597 1.2654 2.0918 2.744-0.121l80.612-141.77c0.70556-1.1261 1.2108-1.914-0.91475-1.9513zm6.5856 3.7197c-0.15225 0.0645-0.31859 0.63826-0.79265 1.5244l-81.161 142.81c-0.88551 1.5076-1.0961 2.0479 1.0366 1.7074l128.85-17.744c2.0434-0.46654 1.9814-1.1973 1.2807-3.2319l-48.62-123.48c-0.3215-1.1829-0.45694-1.6494-0.60972-1.5854zm-178.18 1.3415c-0.15801 0.11311-0.30011 0.71495-0.60981 1.5854l-41.16 121.16c-0.70087 2.5741-0.78013 3.5412 1.8293 4.0245l123.11 17.805c2.328 0.34987 2.0303-0.82265 1.4634-1.9513l-83.79-141.34c-0.52732-1.0678-0.69637-1.394-0.85367-1.2804zm224.03 1.5854 0.24391 5.061-4.1464 2.683 0.97555 18.354 4.1464-4.0856 0.30503 5.0002-4.2075 4.0245-4.4513 2.866-1.2196-23.354-1.9512 1.2195 0.0602 1.4635c-0.91317-0.12686-1.8031-0.0703-2.683 0.12101-0.88743 0.21015-1.724 0.56568-2.5611 1.0976-1.2436 0.79027-2.1813 1.7144-2.8049 2.805-0.63176 1.0958-0.91849 2.281-0.85375 3.5367 0.0658 1.2939 0.44182 2.0305 1.1586 2.2563 0.70919 0.24352 1.7242-0.0194 3.0488-0.85369l1.8905-1.2196 0.24384 4.7563-1.9512 1.2195c-1.1785 0.74872-2.0744 1.6235-2.6221 2.5611-0.54699 0.95007-0.79243 1.9911-0.73179 3.1708 0.0562 1.0908 0.3842 1.7723 0.97555 2.0122 0.59166 0.23979 1.4151 0.0409 2.4391-0.60978 0.75595-0.4802 1.4979-1.1331 2.2564-1.8902 0.75843-0.75709 1.5188-1.6166 2.2561-2.6221l0.24385 5.366c-0.9055 0.99476-1.7829 1.8406-2.683 2.6221-0.89994 0.7813-1.805 1.4545-2.683 2.0122-2.3651 1.5029-4.1328 2.0594-5.366 1.5854-1.2406-0.45601-1.9478-1.8939-2.0732-4.3293-0.0854-1.6617 0.10353-3.2126 0.60975-4.6343 0.50655-1.4092 1.3032-2.7133 2.3782-3.8417-1.2528 0.28527-2.2296 0.0352-2.9268-0.79261-0.70485-0.80978-1.0614-2.1345-1.1587-4.0245-0.14439-2.8159 0.40147-5.3949 1.7073-7.7442 1.3066-2.3367 3.3262-4.3531 5.9758-6.0367 0.93466-0.59397 1.8498-1.1054 2.8049-1.4634 0.19534-0.076 0.41248-0.11706 0.60981-0.18342l0.0602-0.0605 12.683-8.049zm-259.82 9.8783c0.6217-0.0409 1.2735 0.16196 2.0122 0.60977 1.6284 0.98637 2.8197 2.836 3.5366 5.5488 0.0451 0.17173 0.0817 0.3725 0.12099 0.5489l0.24385-3.2319 8.7808 5.3052-0.36589 4.4512-2.8658-1.7074-1.2807 15.976 2.988 0.60977-0.30494 4.3295-3.049-0.54889-3.0489-1.8902 1.6466-20.366-2.5002-1.4635c0.37493 2.3359 0.49744 5.0261 0.24393 8.1099-0.33681 4.0977-1.1451 6.9526-2.378 8.6588-1.2394 1.714-2.7548 2.0163-4.5734 0.91477-0.57615-0.34909-1.118-0.77466-1.6462-1.2806-0.52827-0.50597-1.083-1.0919-1.5855-1.7682l0.36598-4.5734c0.49047 0.82051 1.0125 1.4951 1.4634 2.0124 0.44989 0.52841 0.89392 0.94832 1.3415 1.2196 0.96238 0.58284 1.7534 0.49385 2.3781-0.24391 0.62368-0.72666 1.0198-2.1187 1.2806-4.1465-0.41408 0.31882-0.828 0.48294-1.2806 0.48781-0.45377 0.0195-0.95423-0.1191-1.4635-0.42694-1.2814-0.77604-2.2046-2.1269-2.8658-4.0854-0.6672-1.962-0.92951-4.1824-0.73179-6.5856 0.21841-2.6578 0.8188-4.5363 1.8293-5.6099 0.50488-0.53134 1.0855-0.81174 1.7074-0.8537zm0.91444 4.4513c-0.22727 0.0506-0.44006 0.21267-0.60957 0.48781-0.34553 0.55805-0.55148 1.5372-0.67076 2.988-0.1191 1.4508-0.1033 2.644 0.12101 3.5367 0.21967 0.90032 0.6488 1.5446 1.2196 1.8902 0.56497 0.34246 0.99584 0.19319 1.3414-0.36585 0.33901-0.55027 0.55149-1.537 0.67067-2.9878 0.1191-1.4508 0.0976-2.6364-0.12101-3.5367-0.22617-0.89271-0.59341-1.4871-1.1585-1.8293-0.28544-0.17369-0.56527-0.23417-0.79287-0.18344zm96.832 9.0246h8.6588v6.4636h15.793v7.8662l-14.269 21.22h-10.183v-22.44h-5.061v-6.6466h5.061v-6.4636zm30.001 0h24.818v6.3417h-8.049v22.989l8.2928-1.7074v6.2197l-8.2928 1.7074h-8.72v-29.208h-8.049v-6.3417zm-21.342 13.11v14.939l10.061-14.939h-10.061zm-61.282 26.891 5.7319 7.8051-2.683 1.7684c0.4139 0.0937 0.79707 0.16391 1.2195 0.30478 3.3674 1.1358 6.4656 3.6471 9.2686 7.4392 3.0894 4.18 4.3354 8.1296 3.7195 11.952-0.63811 3.8155-3.1154 7.1327-7.3782 9.9394-4.369 2.8766-8.7658 3.8362-13.232 2.805-4.4888-1.0379-8.4402-3.9295-11.891-8.5979-1.0935-1.4795-2.0861-2.9336-2.9269-4.4513-0.84098-1.5177-1.5645-3.0819-2.1952-4.6954l4.8782-3.2317c0.47722 1.7144 1.0633 3.2645 1.7073 4.6343 0.63193 1.3776 1.3458 2.6315 2.1952 3.7806 1.8261 2.4705 3.8229 4.0017 5.9758 4.6343 2.141 0.64041 4.3787 0.37797 6.7684-0.85366-1.2792-0.56706-2.4357-1.3368-3.5366-2.2563-1.1127-0.91164-2.1437-2.0465-3.1097-3.3537-2.4314-3.2895-3.6328-6.4597-3.5368-9.5125 0.0856-3.0672 1.4011-5.4474 3.9635-7.1345 0.70856-0.46635 1.4526-0.81816 2.1951-1.0976l-3.9634-5.366 6.8295-4.5123zm155.61 11.281 6.6464 5.1221 10.61 24.879-5.305 7.866-19.147-14.635-2.6221 3.9026-5.6709-4.3293 2.683-3.9636-5.549-4.2074 4.5734-6.7075 5.4879 4.2684 8.293-12.195zm-151.04 6.1586c-1.033 0.0683-2.1326 0.5167-3.2928 1.2806-1.5468 1.0184-2.396 2.1158-2.6219 3.3537-0.24861 1.2314 0.13655 2.6204 1.2195 4.0856 1.0723 1.4508 2.2768 2.2806 3.5976 2.5 1.2983 0.21288 2.7216-0.20098 4.2684-1.2196 1.547-1.0184 2.4346-2.1224 2.683-3.3536 0.22617-1.2379-0.14829-2.6348-1.2195-4.0856-1.083-1.465-2.2993-2.2871-3.5976-2.5-0.3304-0.0547-0.69232-0.0839-1.0367-0.0604zm153.66 2.6222-5.244 7.744 12.683 9.7564-7.4393-17.5zm-199.58 48.843 120.8 68.539c1.5641 0.94791 1.9296 0.60252 1.7073-1.0366l-2.5611-48.05c-0.0697-1.5507-0.27982-2.1821-1.8901-2.4391l-118.05-17.013zm249.76 0.121-122.63 16.952c-1.618 0.23844-1.3259 1.0328-1.3415 2.1952l2.6221 48.904c0.13476 1.4838 0.0914 2.0158 1.8902 1.0976l119.46-69.149zm-76.771 21.098 8.9637 9.9394 7.0123-4.1464 1.9513 2.1952-18.415 10.915-2.9877 1.7684-18.415 10.915-1.9513-2.1343 7.0124-4.1464-7.1344-7.8051-6.5855 4.8172-1.9513-2.1342 6.5857-4.7562 7.5001-4.4514 9.0247 9.9394 3.9635-2.3782 2.9878-1.7684 3.9636-2.3781-7.0734-7.8051-6.6466 4.8172-1.8901-2.1343 6.5855-4.8171 7.5002-4.4515zm-80.612 1.4635c2.3727 0.10779 4.5151 0.9278 6.5247 2.439 2.2312 1.678 3.1759 3.4877 2.8051 5.488-0.3712 2.0004-2.0271 4.0005-4.9393 5.9759-1.7322 1.1749-3.522 1.9776-5.305 2.5l2.0732 1.5854-4.6954 3.1708-4.1464-3.1098 1.5244-1.0366c-2.597-0.17033-4.9427-1.0198-7.0733-2.6221-0.80232-0.6033-1.5301-1.1899-2.1343-1.8293-0.61204-0.63396-1.1331-1.3134-1.5854-2.0122l3.3539-2.2561c0.35511 0.76466 0.75556 1.4088 1.2195 2.0122 0.47184 0.59791 1.0198 1.1752 1.6463 1.6464 1.3142 0.98833 2.7663 1.4941 4.2684 1.5244 1.5101 0.0247 3.0446-0.46856 4.6954-1.4024-0.92419-0.11621-1.7706-0.30451-2.5612-0.60981-0.79057-0.3053-1.5075-0.70234-2.195-1.2195-1.75-1.3159-2.6206-2.7894-2.6221-4.3295 0.0191-1.5396 0.91928-2.8892 2.6829-4.0855 1.9496-1.3224 4.0987-1.93 6.4636-1.8293zm1.0367 3.6587c-0.92364 0.0685-1.8754 0.4452-2.9269 1.1586-1.0598 0.71884-1.6851 1.418-1.8293 2.0732-0.13663 0.64979 0.20375 1.2489 0.97556 1.8293 0.77179 0.58039 1.5844 0.85639 2.5 0.79272 0.92348-0.0696 1.9283-0.50067 2.9879-1.2195 1.0516-0.71334 1.6241-1.3571 1.7684-2.0122 0.1444-0.65529-0.14241-1.3099-0.9146-1.8904-0.77197-0.58028-1.6374-0.80081-2.5611-0.73164z"/>
  </g>
  <metadata>
    <rdf:RDF>
      <cc:Work>
        <dc:format>image/svg+xml</dc:format>
        <dc:type rdf:resource="http://purl.org/dc/dcmitype/StillImage"/>
        <cc:license rdf:resource="http://creativecommons.org/licenses/publicdomain/"/>
        <dc:publisher>
          <cc:Agent rdf:about="http://openclipart.org/">
            <dc:title>Openclipart</dc:title>
          </cc:Agent>
        </dc:publisher>
        <dc:title>Twenty-Sided Dice</dc:title>
        <dc:date>2010-11-06T04:15:17</dc:date>
        <dc:description>A twenty-sided die (d20) as used in wargaming and roleplaying, most famously in Dungeons &amp; Dragons.</dc:description>
        <dc:source>https://openclipart.org/detail/94501/twenty-sided-dice-by-wirelizard</dc:source>
        <dc:creator>
          <cc:Agent>
            <dc:title>wirelizard</dc:title>
          </cc:Agent>
        </dc:creator>
        <dc:subject>
          <rdf:Bag>
            <rdf:li>RPG</rdf:li>
            <rdf:li>d20</rdf:li>
            <rdf:li>dice</rdf:li>
            <rdf:li>die</rdf:li>
            <rdf:li>game</rdf:li>
            <rdf:li>gamer</rdf:li>
            <rdf:li>gaming</rdf:li>
            <rdf:li>roleplay</rdf:li>
            <rdf:li>twenty</rdf:li>
          </rdf:Bag>
        </dc:subject>
      </cc:Work>
      <cc:License rdf:about="http://creativecommons.org/licenses/publicdomain/">
        <cc:permits rdf:resource="http://creativecommons.org/ns#Reproduction"/>
        <cc:permits rdf:resource="http://creativecommons.org/ns#Distribution"/>
        <cc:permits rdf:resource="http://creativecommons.org/ns#DerivativeWorks"/>
      </cc:License>
    </rdf:RDF>
  </metadata>
</svg>